<?xml version="1.0" encoding="utf-8" standalone="no"?>
<!DOCTYPE svg PUBLIC "-//W3C//DTD SVG 1.1//EN"
  "http://www.w3.org/Graphics/SVG/1.1/DTD/svg11.dtd">
<svg xmlns:xlink="http://www.w3.org/1999/xlink" width="401.809585pt" height="305.723353pt" viewBox="0 0 401.809585 305.723353" xmlns="http://www.w3.org/2000/svg" version="1.1">
 <metadata>
  <rdf:RDF xmlns:dc="http://purl.org/dc/elements/1.1/" xmlns:cc="http://creativecommons.org/ns#" xmlns:rdf="http://www.w3.org/1999/02/22-rdf-syntax-ns#">
   <cc:Work>
    <dc:type rdf:resource="http://purl.org/dc/dcmitype/StillImage"/>
    <dc:date>2023-12-13T06:51:32.299043</dc:date>
    <dc:format>image/svg+xml</dc:format>
    <dc:creator>
     <cc:Agent>
      <dc:title>Matplotlib v3.8.1, https://matplotlib.org/</dc:title>
     </cc:Agent>
    </dc:creator>
   </cc:Work>
  </rdf:RDF>
 </metadata>
 <defs>
  <style type="text/css">*{stroke-linejoin: round; stroke-linecap: butt}</style>
 </defs>
 <g id="figure_1">
  <g id="patch_1">
   <path d="M -0 305.723353 
L 401.809585 305.723353 
L 401.809585 0 
L -0 0 
z
" style="fill: #ffffff"/>
  </g>
  <g id="axes_1">
   <g id="patch_2">
    <path d="M 37.489585 273.312 
L 394.609585 273.312 
L 394.609585 7.2 
L 37.489585 7.2 
z
" style="fill: #ffffff"/>
   </g>
   <g id="matplotlib.axis_1">
    <g id="xtick_1">
     <g id="line2d_1">
      <path d="M 53.453781 273.312 
L 53.453781 7.2 
" clip-path="url(#p45351073ba)" style="fill: none; stroke: #cccccc; stroke-width: 0.8; stroke-linecap: round"/>
     </g>
     <g id="line2d_2"/>
     <g id="text_1">
      <!-- $\mathdefault{0}$ -->
      <g transform="translate(50.963113 283.730498) scale(0.1 -0.1)">
       <defs>
        <path id="CMR17-30" d="M 2688 2025 
C 2688 2416 2682 3080 2413 3591 
C 2176 4039 1798 4198 1466 4198 
C 1158 4198 768 4058 525 3597 
C 269 3118 243 2524 243 2025 
C 243 1661 250 1106 448 619 
C 723 -39 1216 -128 1466 -128 
C 1760 -128 2208 -7 2470 600 
C 2662 1042 2688 1559 2688 2025 
z
M 1466 -26 
C 1056 -26 813 325 723 812 
C 653 1188 653 1738 653 2096 
C 653 2588 653 2997 736 3387 
C 858 3929 1216 4096 1466 4096 
C 1728 4096 2067 3923 2189 3400 
C 2272 3036 2278 2607 2278 2096 
C 2278 1680 2278 1169 2202 792 
C 2067 95 1690 -26 1466 -26 
z
" transform="scale(0.015625)"/>
       </defs>
       <use xlink:href="#CMR17-30" transform="scale(0.996264)"/>
      </g>
     </g>
    </g>
    <g id="xtick_2">
     <g id="line2d_3">
      <path d="M 107.160074 273.312 
L 107.160074 7.2 
" clip-path="url(#p45351073ba)" style="fill: none; stroke: #cccccc; stroke-width: 0.8; stroke-linecap: round"/>
     </g>
     <g id="line2d_4"/>
     <g id="text_2">
      <!-- $\mathdefault{200}$ -->
      <g transform="translate(99.688071 283.730498) scale(0.1 -0.1)">
       <defs>
        <path id="CMR17-32" d="M 2669 989 
L 2554 989 
C 2490 536 2438 459 2413 420 
C 2381 369 1920 369 1830 369 
L 602 369 
C 832 619 1280 1072 1824 1597 
C 2214 1967 2669 2402 2669 3035 
C 2669 3790 2067 4224 1395 4224 
C 691 4224 262 3604 262 3030 
C 262 2780 448 2748 525 2748 
C 589 2748 781 2787 781 3010 
C 781 3207 614 3264 525 3264 
C 486 3264 448 3258 422 3245 
C 544 3790 915 4058 1306 4058 
C 1862 4058 2227 3617 2227 3035 
C 2227 2479 1901 2000 1536 1584 
L 262 146 
L 262 0 
L 2515 0 
L 2669 989 
z
" transform="scale(0.015625)"/>
       </defs>
       <use xlink:href="#CMR17-32" transform="scale(0.996264)"/>
       <use xlink:href="#CMR17-30" transform="translate(45.690477 0) scale(0.996264)"/>
       <use xlink:href="#CMR17-30" transform="translate(91.380954 0) scale(0.996264)"/>
      </g>
     </g>
    </g>
    <g id="xtick_3">
     <g id="line2d_5">
      <path d="M 160.866368 273.312 
L 160.866368 7.2 
" clip-path="url(#p45351073ba)" style="fill: none; stroke: #cccccc; stroke-width: 0.8; stroke-linecap: round"/>
     </g>
     <g id="line2d_6"/>
     <g id="text_3">
      <!-- $\mathdefault{400}$ -->
      <g transform="translate(153.394365 283.730498) scale(0.1 -0.1)">
       <defs>
        <path id="CMR17-34" d="M 2150 4122 
C 2150 4256 2144 4256 2029 4256 
L 128 1254 
L 128 1088 
L 1779 1088 
L 1779 457 
C 1779 224 1766 160 1318 160 
L 1197 160 
L 1197 0 
C 1402 0 1747 0 1965 0 
C 2182 0 2528 0 2733 0 
L 2733 160 
L 2611 160 
C 2163 160 2150 224 2150 457 
L 2150 1088 
L 2803 1088 
L 2803 1254 
L 2150 1254 
L 2150 4122 
z
M 1798 3703 
L 1798 1254 
L 256 1254 
L 1798 3703 
z
" transform="scale(0.015625)"/>
       </defs>
       <use xlink:href="#CMR17-34" transform="scale(0.996264)"/>
       <use xlink:href="#CMR17-30" transform="translate(45.690477 0) scale(0.996264)"/>
       <use xlink:href="#CMR17-30" transform="translate(91.380954 0) scale(0.996264)"/>
      </g>
     </g>
    </g>
    <g id="xtick_4">
     <g id="line2d_7">
      <path d="M 214.572662 273.312 
L 214.572662 7.2 
" clip-path="url(#p45351073ba)" style="fill: none; stroke: #cccccc; stroke-width: 0.8; stroke-linecap: round"/>
     </g>
     <g id="line2d_8"/>
     <g id="text_4">
      <!-- $\mathdefault{600}$ -->
      <g transform="translate(207.100659 283.730498) scale(0.1 -0.1)">
       <defs>
        <path id="CMR17-36" d="M 678 2176 
C 678 3690 1395 4032 1811 4032 
C 1946 4032 2272 4009 2400 3776 
C 2298 3776 2106 3776 2106 3553 
C 2106 3381 2246 3323 2336 3323 
C 2394 3323 2566 3348 2566 3560 
C 2566 3954 2246 4179 1805 4179 
C 1043 4179 243 3390 243 1984 
C 243 253 966 -128 1478 -128 
C 2099 -128 2688 427 2688 1283 
C 2688 2081 2170 2662 1517 2662 
C 1126 2662 838 2407 678 1960 
L 678 2176 
z
M 1478 25 
C 691 25 691 1200 691 1436 
C 691 1896 909 2560 1504 2560 
C 1613 2560 1926 2560 2138 2120 
C 2253 1870 2253 1609 2253 1289 
C 2253 944 2253 690 2118 434 
C 1978 171 1773 25 1478 25 
z
" transform="scale(0.015625)"/>
       </defs>
       <use xlink:href="#CMR17-36" transform="scale(0.996264)"/>
       <use xlink:href="#CMR17-30" transform="translate(45.690477 0) scale(0.996264)"/>
       <use xlink:href="#CMR17-30" transform="translate(91.380954 0) scale(0.996264)"/>
      </g>
     </g>
    </g>
    <g id="xtick_5">
     <g id="line2d_9">
      <path d="M 268.278955 273.312 
L 268.278955 7.2 
" clip-path="url(#p45351073ba)" style="fill: none; stroke: #cccccc; stroke-width: 0.8; stroke-linecap: round"/>
     </g>
     <g id="line2d_10"/>
     <g id="text_5">
      <!-- $\mathdefault{800}$ -->
      <g transform="translate(260.806953 283.730498) scale(0.1 -0.1)">
       <defs>
        <path id="CMR17-38" d="M 1741 2264 
C 2144 2467 2554 2773 2554 3263 
C 2554 3841 1990 4179 1472 4179 
C 890 4179 378 3759 378 3180 
C 378 3021 416 2747 666 2505 
C 730 2442 998 2251 1171 2130 
C 883 1983 211 1634 211 934 
C 211 279 838 -128 1459 -128 
C 2144 -128 2720 362 2720 1010 
C 2720 1590 2330 1857 2074 2029 
L 1741 2264 
z
M 902 2822 
C 851 2854 595 3051 595 3351 
C 595 3739 998 4032 1459 4032 
C 1965 4032 2336 3676 2336 3262 
C 2336 2669 1670 2331 1638 2331 
C 1632 2331 1626 2331 1574 2370 
L 902 2822 
z
M 2080 1519 
C 2176 1449 2483 1240 2483 851 
C 2483 381 2010 25 1472 25 
C 890 25 448 438 448 940 
C 448 1443 838 1862 1280 2060 
L 2080 1519 
z
" transform="scale(0.015625)"/>
       </defs>
       <use xlink:href="#CMR17-38" transform="scale(0.996264)"/>
       <use xlink:href="#CMR17-30" transform="translate(45.690477 0) scale(0.996264)"/>
       <use xlink:href="#CMR17-30" transform="translate(91.380954 0) scale(0.996264)"/>
      </g>
     </g>
    </g>
    <g id="xtick_6">
     <g id="line2d_11">
      <path d="M 321.985249 273.312 
L 321.985249 7.2 
" clip-path="url(#p45351073ba)" style="fill: none; stroke: #cccccc; stroke-width: 0.8; stroke-linecap: round"/>
     </g>
     <g id="line2d_12"/>
     <g id="text_6">
      <!-- $\mathdefault{1000}$ -->
      <g transform="translate(312.022579 283.730498) scale(0.1 -0.1)">
       <defs>
        <path id="CMR17-31" d="M 1702 4058 
C 1702 4192 1696 4192 1606 4192 
C 1357 3916 979 3827 621 3827 
C 602 3827 570 3827 563 3808 
C 557 3795 557 3782 557 3648 
C 755 3648 1088 3686 1344 3839 
L 1344 461 
C 1344 236 1331 160 781 160 
L 589 160 
L 589 0 
C 896 0 1216 0 1523 0 
C 1830 0 2150 0 2458 0 
L 2458 160 
L 2266 160 
C 1715 160 1702 230 1702 458 
L 1702 4058 
z
" transform="scale(0.015625)"/>
       </defs>
       <use xlink:href="#CMR17-31" transform="scale(0.996264)"/>
       <use xlink:href="#CMR17-30" transform="translate(45.690477 0) scale(0.996264)"/>
       <use xlink:href="#CMR17-30" transform="translate(91.380954 0) scale(0.996264)"/>
       <use xlink:href="#CMR17-30" transform="translate(137.071431 0) scale(0.996264)"/>
      </g>
     </g>
    </g>
    <g id="xtick_7">
     <g id="line2d_13">
      <path d="M 375.691543 273.312 
L 375.691543 7.2 
" clip-path="url(#p45351073ba)" style="fill: none; stroke: #cccccc; stroke-width: 0.8; stroke-linecap: round"/>
     </g>
     <g id="line2d_14"/>
     <g id="text_7">
      <!-- $\mathdefault{1200}$ -->
      <g transform="translate(365.728872 283.730498) scale(0.1 -0.1)">
       <use xlink:href="#CMR17-31" transform="scale(0.996264)"/>
       <use xlink:href="#CMR17-32" transform="translate(45.690477 0) scale(0.996264)"/>
       <use xlink:href="#CMR17-30" transform="translate(91.380954 0) scale(0.996264)"/>
       <use xlink:href="#CMR17-30" transform="translate(137.071431 0) scale(0.996264)"/>
      </g>
     </g>
    </g>
    <g id="text_8">
     <!-- Label Occurrences -->
     <g transform="translate(175.936064 296.586175) scale(0.1 -0.1)">
      <defs>
       <path id="CMR17-4c" d="M 3469 1615 
L 3354 1615 
C 3302 983 3219 166 2125 166 
L 1530 166 
C 1274 166 1261 197 1261 414 
L 1261 3898 
C 1261 4129 1274 4192 1760 4192 
L 1901 4192 
L 1901 4352 
C 1638 4352 1331 4352 1069 4352 
C 870 4352 512 4352 326 4352 
L 326 4192 
C 768 4192 838 4192 838 3905 
L 838 452 
C 838 166 768 166 326 166 
L 326 0 
L 3315 0 
L 3469 1615 
z
" transform="scale(0.015625)"/>
       <path id="CMR17-61" d="M 2304 1653 
C 2304 2072 2304 2294 2035 2543 
C 1798 2752 1523 2816 1306 2816 
C 800 2816 435 2407 435 1971 
C 435 1728 627 1728 666 1728 
C 749 1728 896 1778 896 1954 
C 896 2112 774 2181 666 2181 
C 640 2181 608 2174 589 2168 
C 723 2592 1069 2714 1293 2714 
C 1613 2714 1965 2429 1965 1885 
L 1965 1600 
C 1587 1600 1133 1549 774 1357 
C 371 1133 256 813 256 570 
C 256 77 832 -64 1171 -64 
C 1523 -64 1850 139 1990 511 
C 2003 233 2182 -18 2464 -18 
C 2598 -18 2938 70 2938 567 
L 2938 920 
L 2822 920 
L 2822 562 
C 2822 178 2650 128 2566 128 
C 2304 128 2304 458 2304 738 
L 2304 1653 
z
M 1965 870 
C 1965 317 1568 38 1216 38 
C 896 38 646 275 646 570 
C 646 761 730 1100 1101 1305 
C 1408 1478 1760 1504 1965 1504 
L 1965 870 
z
" transform="scale(0.015625)"/>
       <path id="CMR17-62" d="M 960 4396 
L 198 4326 
L 198 4160 
C 576 4160 634 4122 634 3817 
L 634 -13 
L 749 -13 
L 934 441 
C 1120 141 1395 -64 1766 -64 
C 2406 -64 3053 500 3053 1370 
C 3053 2188 2477 2790 1830 2790 
C 1434 2790 1152 2579 960 2330 
L 960 4396 
z
M 973 2004 
C 973 2118 973 2138 1062 2272 
C 1312 2657 1670 2688 1792 2688 
C 1984 2688 2643 2585 2643 1376 
C 2643 108 1888 38 1734 38 
C 1536 38 1248 114 1043 486 
C 973 608 973 621 973 735 
L 973 2004 
z
" transform="scale(0.015625)"/>
       <path id="CMR17-65" d="M 2438 1472 
C 2464 1498 2464 1511 2464 1576 
C 2464 2238 2118 2816 1389 2816 
C 710 2816 173 2169 173 1383 
C 173 551 781 -64 1459 -64 
C 2176 -64 2458 607 2458 740 
C 2458 784 2419 784 2406 784 
C 2362 784 2355 771 2330 696 
C 2189 265 1837 51 1504 51 
C 1229 51 954 203 781 480 
C 582 803 582 1176 582 1472 
L 2438 1472 
z
M 589 1568 
C 634 2505 1126 2714 1382 2714 
C 1818 2714 2112 2297 2118 1568 
L 589 1568 
z
" transform="scale(0.015625)"/>
       <path id="CMR17-6c" d="M 979 4396 
L 218 4326 
L 218 4160 
C 595 4160 653 4122 653 3817 
L 653 426 
C 653 184 627 153 218 153 
L 218 -13 
C 371 0 653 0 813 0 
C 979 0 1261 0 1414 -13 
L 1414 153 
C 1005 153 979 178 979 426 
L 979 4396 
z
" transform="scale(0.015625)"/>
       <path id="CMR17-4f" d="M 4307 2135 
C 4307 3437 3366 4416 2304 4416 
C 1216 4416 294 3424 294 2135 
C 294 845 1229 -128 2298 -128 
C 3392 -128 4307 864 4307 2135 
z
M 2304 -13 
C 1574 -13 781 711 781 2217 
C 781 3716 1651 4301 2298 4301 
C 2976 4301 3821 3698 3821 2217 
C 3821 686 3008 -13 2304 -13 
z
" transform="scale(0.015625)"/>
       <path id="CMR17-63" d="M 2234 2240 
C 2112 2240 1933 2240 1933 2017 
C 1933 1838 2080 1787 2163 1787 
C 2208 1787 2394 1807 2394 2024 
C 2394 2467 1958 2803 1466 2803 
C 787 2803 211 2178 211 1363 
C 211 516 813 -64 1466 -64 
C 2259 -64 2458 677 2458 748 
C 2458 774 2451 793 2406 793 
C 2362 793 2355 787 2330 703 
C 2163 180 1798 51 1523 51 
C 1114 51 621 427 621 1369 
C 621 2338 1094 2688 1472 2688 
C 1722 2688 2093 2573 2234 2240 
z
" transform="scale(0.015625)"/>
       <path id="CMR17-75" d="M 1882 2693 
L 1882 2528 
C 2259 2528 2317 2489 2317 2186 
L 2317 1032 
C 2317 500 2029 38 1555 38 
C 1030 38 986 348 986 678 
L 986 2763 
L 211 2693 
L 211 2528 
C 467 2528 640 2528 646 2274 
L 646 1058 
C 646 633 646 361 813 183 
C 896 101 1056 -64 1517 -64 
C 2061 -64 2272 377 2323 506 
L 2330 506 
L 2330 -63 
L 3091 -63 
L 3091 128 
C 2714 128 2656 166 2656 473 
L 2656 2763 
L 1882 2693 
z
" transform="scale(0.015625)"/>
       <path id="CMR17-72" d="M 960 1497 
C 960 2112 1222 2688 1702 2688 
C 1747 2688 1792 2682 1837 2662 
C 1837 2662 1696 2617 1696 2452 
C 1696 2298 1818 2234 1914 2234 
C 1990 2234 2131 2279 2131 2458 
C 2131 2663 1926 2790 1709 2790 
C 1222 2790 1011 2317 947 2093 
L 941 2093 
L 941 2790 
L 198 2720 
L 198 2554 
C 576 2554 634 2515 634 2208 
L 634 428 
C 634 184 608 153 198 153 
L 198 -13 
C 352 0 646 0 813 0 
C 998 0 1325 0 1498 -13 
L 1498 153 
C 1037 153 960 153 960 440 
L 960 1497 
z
" transform="scale(0.015625)"/>
       <path id="CMR17-6e" d="M 2656 1933 
C 2656 2259 2592 2790 1837 2790 
C 1331 2790 1069 2400 973 2144 
L 966 2144 
L 966 2790 
L 211 2720 
L 211 2554 
C 589 2554 646 2515 646 2208 
L 646 428 
C 646 184 621 153 211 153 
L 211 -13 
C 365 0 646 0 813 0 
C 979 0 1267 0 1421 -13 
L 1421 153 
C 1011 153 986 178 986 428 
L 986 1658 
C 986 2247 1344 2688 1792 2688 
C 2266 2688 2317 2266 2317 1958 
L 2317 428 
C 2317 184 2291 153 1882 153 
L 1882 -13 
C 2035 0 2317 0 2483 0 
C 2650 0 2938 0 3091 -13 
L 3091 153 
C 2682 153 2656 178 2656 428 
L 2656 1933 
z
" transform="scale(0.015625)"/>
       <path id="CMR17-73" d="M 1978 2697 
C 1978 2813 1971 2819 1933 2819 
C 1907 2819 1901 2813 1824 2717 
C 1805 2691 1747 2626 1728 2601 
C 1523 2819 1235 2819 1126 2819 
C 416 2819 160 2447 160 2076 
C 160 1498 813 1365 998 1325 
C 1402 1243 1542 1217 1677 1101 
C 1760 1025 1901 884 1901 654 
C 1901 384 1747 38 1158 38 
C 602 38 403 460 288 1021 
C 269 1110 269 1117 218 1117 
C 166 1117 160 1110 160 983 
L 160 63 
C 160 -51 166 -58 205 -58 
C 237 -58 243 -51 275 0 
C 314 57 410 211 448 276 
C 576 103 800 -64 1158 -64 
C 1792 -64 2131 283 2131 784 
C 2131 1112 1958 1285 1875 1362 
C 1683 1561 1459 1606 1190 1657 
C 838 1735 390 1825 390 2217 
C 390 2383 480 2737 1126 2737 
C 1811 2737 1850 2094 1862 1888 
C 1869 1856 1901 1849 1920 1849 
C 1978 1849 1978 1869 1978 1978 
L 1978 2697 
z
" transform="scale(0.015625)"/>
      </defs>
      <use xlink:href="#CMR17-4c" transform="scale(0.996264)"/>
      <use xlink:href="#CMR17-61" transform="translate(57.381408 0) scale(0.996264)"/>
      <use xlink:href="#CMR17-62" transform="translate(103.071885 0) scale(0.996264)"/>
      <use xlink:href="#CMR17-65" transform="translate(156.569693 0) scale(0.996264)"/>
      <use xlink:href="#CMR17-6c" transform="translate(197.055354 0) scale(0.996264)"/>
      <use xlink:href="#CMR17-4f" transform="translate(252.002379 0) scale(0.996264)"/>
      <use xlink:href="#CMR17-63" transform="translate(323.717167 0) scale(0.996264)"/>
      <use xlink:href="#CMR17-63" transform="translate(364.202828 0) scale(0.996264)"/>
      <use xlink:href="#CMR17-75" transform="translate(404.688488 0) scale(0.996264)"/>
      <use xlink:href="#CMR17-72" transform="translate(455.583858 0) scale(0.996264)"/>
      <use xlink:href="#CMR17-72" transform="translate(490.864626 0) scale(0.996264)"/>
      <use xlink:href="#CMR17-65" transform="translate(526.145393 0) scale(0.996264)"/>
      <use xlink:href="#CMR17-6e" transform="translate(566.631054 0) scale(0.996264)"/>
      <use xlink:href="#CMR17-63" transform="translate(617.526424 0) scale(0.996264)"/>
      <use xlink:href="#CMR17-65" transform="translate(658.012084 0) scale(0.996264)"/>
      <use xlink:href="#CMR17-73" transform="translate(698.497745 0) scale(0.996264)"/>
     </g>
    </g>
   </g>
   <g id="matplotlib.axis_2">
    <g id="ytick_1">
     <g id="line2d_15">
      <path d="M 37.489585 261.216 
L 394.609585 261.216 
" clip-path="url(#p45351073ba)" style="fill: none; stroke: #cccccc; stroke-width: 0.8; stroke-linecap: round"/>
     </g>
     <g id="line2d_16"/>
     <g id="text_9">
      <!-- $\mathdefault{10^{0}}$ -->
      <g transform="translate(20.055677 264.675249) scale(0.1 -0.1)">
       <use xlink:href="#CMR17-31" transform="scale(0.996264)"/>
       <use xlink:href="#CMR17-30" transform="translate(45.690477 0) scale(0.996264)"/>
       <use xlink:href="#CMR17-30" transform="translate(91.380954 36.153639) scale(0.697382)"/>
      </g>
     </g>
    </g>
    <g id="ytick_2">
     <g id="line2d_17">
      <path d="M 37.489585 157.496222 
L 394.609585 157.496222 
" clip-path="url(#p45351073ba)" style="fill: none; stroke: #cccccc; stroke-width: 0.8; stroke-linecap: round"/>
     </g>
     <g id="line2d_18"/>
     <g id="text_10">
      <!-- $\mathdefault{10^{1}}$ -->
      <g transform="translate(20.055677 160.955471) scale(0.1 -0.1)">
       <use xlink:href="#CMR17-31" transform="scale(0.996264)"/>
       <use xlink:href="#CMR17-30" transform="translate(45.690477 0) scale(0.996264)"/>
       <use xlink:href="#CMR17-31" transform="translate(91.380954 36.153639) scale(0.697382)"/>
      </g>
     </g>
    </g>
    <g id="ytick_3">
     <g id="line2d_19">
      <path d="M 37.489585 53.776443 
L 394.609585 53.776443 
" clip-path="url(#p45351073ba)" style="fill: none; stroke: #cccccc; stroke-width: 0.8; stroke-linecap: round"/>
     </g>
     <g id="line2d_20"/>
     <g id="text_11">
      <!-- $\mathdefault{10^{2}}$ -->
      <g transform="translate(20.055677 57.235693) scale(0.1 -0.1)">
       <use xlink:href="#CMR17-31" transform="scale(0.996264)"/>
       <use xlink:href="#CMR17-30" transform="translate(45.690477 0) scale(0.996264)"/>
       <use xlink:href="#CMR17-32" transform="translate(91.380954 36.153639) scale(0.697382)"/>
      </g>
     </g>
    </g>
    <g id="ytick_4">
     <g id="line2d_21"/>
    </g>
    <g id="ytick_5">
     <g id="line2d_22"/>
    </g>
    <g id="ytick_6">
     <g id="line2d_23"/>
    </g>
    <g id="ytick_7">
     <g id="line2d_24"/>
    </g>
    <g id="ytick_8">
     <g id="line2d_25"/>
    </g>
    <g id="ytick_9">
     <g id="line2d_26"/>
    </g>
    <g id="ytick_10">
     <g id="line2d_27"/>
    </g>
    <g id="ytick_11">
     <g id="line2d_28"/>
    </g>
    <g id="ytick_12">
     <g id="line2d_29"/>
    </g>
    <g id="ytick_13">
     <g id="line2d_30"/>
    </g>
    <g id="ytick_14">
     <g id="line2d_31"/>
    </g>
    <g id="ytick_15">
     <g id="line2d_32"/>
    </g>
    <g id="ytick_16">
     <g id="line2d_33"/>
    </g>
    <g id="ytick_17">
     <g id="line2d_34"/>
    </g>
    <g id="ytick_18">
     <g id="line2d_35"/>
    </g>
    <g id="ytick_19">
     <g id="line2d_36"/>
    </g>
    <g id="ytick_20">
     <g id="line2d_37"/>
    </g>
    <g id="ytick_21">
     <g id="line2d_38"/>
    </g>
    <g id="ytick_22">
     <g id="line2d_39"/>
    </g>
    <g id="text_12">
     <!-- Frequency -->
     <g transform="translate(14.118498 162.478262) rotate(-90) scale(0.1 -0.1)">
      <defs>
       <path id="CMR17-46" d="M 3482 4325 
L 326 4325 
L 326 4160 
C 768 4160 838 4160 838 3874 
L 838 446 
C 838 160 768 160 326 160 
L 326 0 
C 512 0 870 0 1069 0 
C 1331 0 1638 0 1901 0 
L 1901 160 
L 1760 160 
C 1274 160 1261 223 1261 452 
L 1261 2075 
L 1837 2075 
C 2432 2075 2490 1865 2490 1332 
L 2605 1332 
L 2605 2987 
L 2490 2987 
C 2490 2450 2432 2240 1837 2240 
L 1261 2240 
L 1261 3911 
C 1261 4128 1274 4160 1530 4160 
L 2355 4160 
C 3322 4160 3430 3765 3520 2916 
L 3635 2916 
L 3482 4325 
z
" transform="scale(0.015625)"/>
       <path id="CMR17-71" d="M 2630 2802 
L 2528 2802 
L 2336 2172 
C 2189 2509 1920 2802 1491 2802 
C 838 2802 211 2223 211 1383 
C 211 548 800 -38 1440 -38 
C 1933 -38 2208 338 2291 478 
L 2291 -789 
C 2291 -1031 2266 -1063 1856 -1063 
L 1856 -1228 
C 2010 -1216 2291 -1216 2458 -1216 
C 2624 -1216 2912 -1216 3066 -1228 
L 3066 -1063 
C 2656 -1063 2630 -1037 2630 -789 
L 2630 2802 
z
M 2304 886 
C 2304 612 2074 357 2054 338 
C 1856 115 1626 64 1472 64 
C 992 64 621 669 621 1375 
C 621 2121 1043 2688 1536 2688 
C 2048 2688 2304 2108 2304 1777 
L 2304 886 
z
" transform="scale(0.015625)"/>
       <path id="CMR17-79" d="M 2496 2197 
C 2656 2586 2944 2586 3034 2586 
L 3034 2752 
C 2912 2752 2752 2752 2630 2752 
C 2496 2752 2285 2752 2157 2758 
L 2157 2592 
C 2400 2573 2406 2394 2406 2343 
C 2406 2280 2394 2248 2362 2171 
L 1664 449 
L 902 2306 
C 870 2382 870 2426 870 2433 
C 870 2573 1018 2586 1171 2586 
L 1171 2758 
C 1018 2752 742 2752 582 2752 
C 410 2752 205 2752 64 2758 
L 64 2586 
C 410 2586 448 2554 531 2350 
L 1485 15 
C 1197 -738 1030 -1178 627 -1178 
C 557 -1178 397 -1159 282 -1044 
C 429 -1031 493 -942 493 -833 
C 493 -725 416 -629 288 -629 
C 147 -629 77 -725 77 -840 
C 77 -1095 339 -1280 627 -1280 
C 998 -1280 1229 -922 1357 -604 
L 2496 2197 
z
" transform="scale(0.015625)"/>
      </defs>
      <use xlink:href="#CMR17-46" transform="scale(0.996264)"/>
      <use xlink:href="#CMR17-72" transform="translate(52.176591 0) scale(0.996264)"/>
      <use xlink:href="#CMR17-65" transform="translate(87.457359 0) scale(0.996264)"/>
      <use xlink:href="#CMR17-71" transform="translate(127.943019 0) scale(0.996264)"/>
      <use xlink:href="#CMR17-75" transform="translate(176.235935 0) scale(0.996264)"/>
      <use xlink:href="#CMR17-65" transform="translate(227.131305 0) scale(0.996264)"/>
      <use xlink:href="#CMR17-6e" transform="translate(267.616966 0) scale(0.996264)"/>
      <use xlink:href="#CMR17-63" transform="translate(318.512335 0) scale(0.996264)"/>
      <use xlink:href="#CMR17-79" transform="translate(358.997996 0) scale(0.996264)"/>
     </g>
    </g>
   </g>
   <g id="patch_3">
    <path d="M 53.722312 103980.994317 
L 56.968858 103980.994317 
L 56.968858 19.296 
L 53.722312 19.296 
z
" clip-path="url(#p45351073ba)" style="fill: #1f77b4"/>
   </g>
   <g id="patch_4">
    <path d="M 56.968858 103980.994317 
L 60.215403 103980.994317 
L 60.215403 90.757453 
L 56.968858 90.757453 
z
" clip-path="url(#p45351073ba)" style="fill: #1f77b4"/>
   </g>
   <g id="patch_5">
    <path d="M 60.215403 103980.994317 
L 63.461948 103980.994317 
L 63.461948 108.009311 
L 60.215403 108.009311 
z
" clip-path="url(#p45351073ba)" style="fill: #1f77b4"/>
   </g>
   <g id="patch_6">
    <path d="M 63.461948 103980.994317 
L 66.708494 103980.994317 
L 66.708494 128.58396 
L 63.461948 128.58396 
z
" clip-path="url(#p45351073ba)" style="fill: #1f77b4"/>
   </g>
   <g id="patch_7">
    <path d="M 66.708494 103980.994317 
L 69.955039 103980.994317 
L 69.955039 153.202982 
L 66.708494 153.202982 
z
" clip-path="url(#p45351073ba)" style="fill: #1f77b4"/>
   </g>
   <g id="patch_8">
    <path d="M 69.955039 103980.994317 
L 73.201585 103980.994317 
L 73.201585 173.562619 
L 69.955039 173.562619 
z
" clip-path="url(#p45351073ba)" style="fill: #1f77b4"/>
   </g>
   <g id="patch_9">
    <path d="M 73.201585 103980.994317 
L 76.44813 103980.994317 
L 76.44813 180.506325 
L 73.201585 180.506325 
z
" clip-path="url(#p45351073ba)" style="fill: #1f77b4"/>
   </g>
   <g id="patch_10">
    <path d="M 76.44813 103980.994317 
L 79.694676 103980.994317 
L 79.694676 211.729089 
L 76.44813 211.729089 
z
" clip-path="url(#p45351073ba)" style="fill: #1f77b4"/>
   </g>
   <g id="patch_11">
    <path d="M 79.694676 103980.994317 
L 82.941221 103980.994317 
L 82.941221 198.770471 
L 79.694676 198.770471 
z
" clip-path="url(#p45351073ba)" style="fill: #1f77b4"/>
   </g>
   <g id="patch_12">
    <path d="M 82.941221 103980.994317 
L 86.187767 103980.994317 
L 86.187767 229.993236 
L 82.941221 229.993236 
z
" clip-path="url(#p45351073ba)" style="fill: #1f77b4"/>
   </g>
   <g id="patch_13">
    <path d="M 86.187767 103980.994317 
L 89.434312 103980.994317 
L 89.434312 211.729089 
L 86.187767 211.729089 
z
" clip-path="url(#p45351073ba)" style="fill: #1f77b4"/>
   </g>
   <g id="patch_14">
    <path d="M 89.434312 103980.994317 
L 92.680858 103980.994317 
L 92.680858 198.770471 
L 89.434312 198.770471 
z
" clip-path="url(#p45351073ba)" style="fill: #1f77b4"/>
   </g>
   <g id="patch_15">
    <path d="M 92.680858 103980.994317 
L 95.927403 103980.994317 
L 95.927403 261.216 
L 92.680858 261.216 
z
" clip-path="url(#p45351073ba)" style="fill: #1f77b4"/>
   </g>
   <g id="patch_16">
    <path d="M 95.927403 103980.994317 
L 99.173948 103980.994317 
L 99.173948 211.729089 
L 95.927403 211.729089 
z
" clip-path="url(#p45351073ba)" style="fill: #1f77b4"/>
   </g>
   <g id="patch_17">
    <path d="M 99.173948 103980.994317 
L 102.420494 103980.994317 
L 102.420494 261.216 
L 99.173948 261.216 
z
" clip-path="url(#p45351073ba)" style="fill: #1f77b4"/>
   </g>
   <g id="patch_18">
    <path d="M 102.420494 103980.994317 
L 105.667039 103980.994317 
L 105.667039 261.216 
L 102.420494 261.216 
z
" clip-path="url(#p45351073ba)" style="fill: #1f77b4"/>
   </g>
   <g id="patch_19">
    <path d="M 105.667039 103980.994317 
L 108.913585 103980.994317 
L 108.913585 103980.994317 
L 105.667039 103980.994317 
z
" clip-path="url(#p45351073ba)" style="fill: #1f77b4"/>
   </g>
   <g id="patch_20">
    <path d="M 108.913585 103980.994317 
L 112.16013 103980.994317 
L 112.16013 211.729089 
L 108.913585 211.729089 
z
" clip-path="url(#p45351073ba)" style="fill: #1f77b4"/>
   </g>
   <g id="patch_21">
    <path d="M 112.16013 103980.994317 
L 115.406676 103980.994317 
L 115.406676 103980.994317 
L 112.16013 103980.994317 
z
" clip-path="url(#p45351073ba)" style="fill: #1f77b4"/>
   </g>
   <g id="patch_22">
    <path d="M 115.406676 103980.994317 
L 118.653221 103980.994317 
L 118.653221 261.216 
L 115.406676 261.216 
z
" clip-path="url(#p45351073ba)" style="fill: #1f77b4"/>
   </g>
   <g id="patch_23">
    <path d="M 118.653221 103980.994317 
L 121.899767 103980.994317 
L 121.899767 103980.994317 
L 118.653221 103980.994317 
z
" clip-path="url(#p45351073ba)" style="fill: #1f77b4"/>
   </g>
   <g id="patch_24">
    <path d="M 121.899767 103980.994317 
L 125.146312 103980.994317 
L 125.146312 198.770471 
L 121.899767 198.770471 
z
" clip-path="url(#p45351073ba)" style="fill: #1f77b4"/>
   </g>
   <g id="patch_25">
    <path d="M 125.146312 103980.994317 
L 128.392858 103980.994317 
L 128.392858 103980.994317 
L 125.146312 103980.994317 
z
" clip-path="url(#p45351073ba)" style="fill: #1f77b4"/>
   </g>
   <g id="patch_26">
    <path d="M 128.392858 103980.994317 
L 131.639403 103980.994317 
L 131.639403 261.216 
L 128.392858 261.216 
z
" clip-path="url(#p45351073ba)" style="fill: #1f77b4"/>
   </g>
   <g id="patch_27">
    <path d="M 131.639403 103980.994317 
L 134.885948 103980.994317 
L 134.885948 103980.994317 
L 131.639403 103980.994317 
z
" clip-path="url(#p45351073ba)" style="fill: #1f77b4"/>
   </g>
   <g id="patch_28">
    <path d="M 134.885948 103980.994317 
L 138.132494 103980.994317 
L 138.132494 103980.994317 
L 134.885948 103980.994317 
z
" clip-path="url(#p45351073ba)" style="fill: #1f77b4"/>
   </g>
   <g id="patch_29">
    <path d="M 138.132494 103980.994317 
L 141.379039 103980.994317 
L 141.379039 103980.994317 
L 138.132494 103980.994317 
z
" clip-path="url(#p45351073ba)" style="fill: #1f77b4"/>
   </g>
   <g id="patch_30">
    <path d="M 141.379039 103980.994317 
L 144.625585 103980.994317 
L 144.625585 103980.994317 
L 141.379039 103980.994317 
z
" clip-path="url(#p45351073ba)" style="fill: #1f77b4"/>
   </g>
   <g id="patch_31">
    <path d="M 144.625585 103980.994317 
L 147.87213 103980.994317 
L 147.87213 261.216 
L 144.625585 261.216 
z
" clip-path="url(#p45351073ba)" style="fill: #1f77b4"/>
   </g>
   <g id="patch_32">
    <path d="M 147.87213 103980.994317 
L 151.118676 103980.994317 
L 151.118676 261.216 
L 147.87213 261.216 
z
" clip-path="url(#p45351073ba)" style="fill: #1f77b4"/>
   </g>
   <g id="patch_33">
    <path d="M 151.118676 103980.994317 
L 154.365221 103980.994317 
L 154.365221 103980.994317 
L 151.118676 103980.994317 
z
" clip-path="url(#p45351073ba)" style="fill: #1f77b4"/>
   </g>
   <g id="patch_34">
    <path d="M 154.365221 103980.994317 
L 157.611767 103980.994317 
L 157.611767 261.216 
L 154.365221 261.216 
z
" clip-path="url(#p45351073ba)" style="fill: #1f77b4"/>
   </g>
   <g id="patch_35">
    <path d="M 157.611767 103980.994317 
L 160.858312 103980.994317 
L 160.858312 103980.994317 
L 157.611767 103980.994317 
z
" clip-path="url(#p45351073ba)" style="fill: #1f77b4"/>
   </g>
   <g id="patch_36">
    <path d="M 160.858312 103980.994317 
L 164.104858 103980.994317 
L 164.104858 103980.994317 
L 160.858312 103980.994317 
z
" clip-path="url(#p45351073ba)" style="fill: #1f77b4"/>
   </g>
   <g id="patch_37">
    <path d="M 164.104858 103980.994317 
L 167.351403 103980.994317 
L 167.351403 103980.994317 
L 164.104858 103980.994317 
z
" clip-path="url(#p45351073ba)" style="fill: #1f77b4"/>
   </g>
   <g id="patch_38">
    <path d="M 167.351403 103980.994317 
L 170.597948 103980.994317 
L 170.597948 103980.994317 
L 167.351403 103980.994317 
z
" clip-path="url(#p45351073ba)" style="fill: #1f77b4"/>
   </g>
   <g id="patch_39">
    <path d="M 170.597948 103980.994317 
L 173.844494 103980.994317 
L 173.844494 103980.994317 
L 170.597948 103980.994317 
z
" clip-path="url(#p45351073ba)" style="fill: #1f77b4"/>
   </g>
   <g id="patch_40">
    <path d="M 173.844494 103980.994317 
L 177.091039 103980.994317 
L 177.091039 103980.994317 
L 173.844494 103980.994317 
z
" clip-path="url(#p45351073ba)" style="fill: #1f77b4"/>
   </g>
   <g id="patch_41">
    <path d="M 177.091039 103980.994317 
L 180.337585 103980.994317 
L 180.337585 103980.994317 
L 177.091039 103980.994317 
z
" clip-path="url(#p45351073ba)" style="fill: #1f77b4"/>
   </g>
   <g id="patch_42">
    <path d="M 180.337585 103980.994317 
L 183.58413 103980.994317 
L 183.58413 229.993236 
L 180.337585 229.993236 
z
" clip-path="url(#p45351073ba)" style="fill: #1f77b4"/>
   </g>
   <g id="patch_43">
    <path d="M 183.58413 103980.994317 
L 186.830676 103980.994317 
L 186.830676 103980.994317 
L 183.58413 103980.994317 
z
" clip-path="url(#p45351073ba)" style="fill: #1f77b4"/>
   </g>
   <g id="patch_44">
    <path d="M 186.830676 103980.994317 
L 190.077221 103980.994317 
L 190.077221 103980.994317 
L 186.830676 103980.994317 
z
" clip-path="url(#p45351073ba)" style="fill: #1f77b4"/>
   </g>
   <g id="patch_45">
    <path d="M 190.077221 103980.994317 
L 193.323767 103980.994317 
L 193.323767 261.216 
L 190.077221 261.216 
z
" clip-path="url(#p45351073ba)" style="fill: #1f77b4"/>
   </g>
   <g id="patch_46">
    <path d="M 193.323767 103980.994317 
L 196.570312 103980.994317 
L 196.570312 103980.994317 
L 193.323767 103980.994317 
z
" clip-path="url(#p45351073ba)" style="fill: #1f77b4"/>
   </g>
   <g id="patch_47">
    <path d="M 196.570312 103980.994317 
L 199.816858 103980.994317 
L 199.816858 103980.994317 
L 196.570312 103980.994317 
z
" clip-path="url(#p45351073ba)" style="fill: #1f77b4"/>
   </g>
   <g id="patch_48">
    <path d="M 199.816858 103980.994317 
L 203.063403 103980.994317 
L 203.063403 103980.994317 
L 199.816858 103980.994317 
z
" clip-path="url(#p45351073ba)" style="fill: #1f77b4"/>
   </g>
   <g id="patch_49">
    <path d="M 203.063403 103980.994317 
L 206.309948 103980.994317 
L 206.309948 103980.994317 
L 203.063403 103980.994317 
z
" clip-path="url(#p45351073ba)" style="fill: #1f77b4"/>
   </g>
   <g id="patch_50">
    <path d="M 206.309948 103980.994317 
L 209.556494 103980.994317 
L 209.556494 261.216 
L 206.309948 261.216 
z
" clip-path="url(#p45351073ba)" style="fill: #1f77b4"/>
   </g>
   <g id="patch_51">
    <path d="M 209.556494 103980.994317 
L 212.803039 103980.994317 
L 212.803039 103980.994317 
L 209.556494 103980.994317 
z
" clip-path="url(#p45351073ba)" style="fill: #1f77b4"/>
   </g>
   <g id="patch_52">
    <path d="M 212.803039 103980.994317 
L 216.049585 103980.994317 
L 216.049585 103980.994317 
L 212.803039 103980.994317 
z
" clip-path="url(#p45351073ba)" style="fill: #1f77b4"/>
   </g>
   <g id="patch_53">
    <path d="M 216.049585 103980.994317 
L 219.29613 103980.994317 
L 219.29613 103980.994317 
L 216.049585 103980.994317 
z
" clip-path="url(#p45351073ba)" style="fill: #1f77b4"/>
   </g>
   <g id="patch_54">
    <path d="M 219.29613 103980.994317 
L 222.542676 103980.994317 
L 222.542676 103980.994317 
L 219.29613 103980.994317 
z
" clip-path="url(#p45351073ba)" style="fill: #1f77b4"/>
   </g>
   <g id="patch_55">
    <path d="M 222.542676 103980.994317 
L 225.789221 103980.994317 
L 225.789221 103980.994317 
L 222.542676 103980.994317 
z
" clip-path="url(#p45351073ba)" style="fill: #1f77b4"/>
   </g>
   <g id="patch_56">
    <path d="M 225.789221 103980.994317 
L 229.035767 103980.994317 
L 229.035767 261.216 
L 225.789221 261.216 
z
" clip-path="url(#p45351073ba)" style="fill: #1f77b4"/>
   </g>
   <g id="patch_57">
    <path d="M 229.035767 103980.994317 
L 232.282312 103980.994317 
L 232.282312 103980.994317 
L 229.035767 103980.994317 
z
" clip-path="url(#p45351073ba)" style="fill: #1f77b4"/>
   </g>
   <g id="patch_58">
    <path d="M 232.282312 103980.994317 
L 235.528858 103980.994317 
L 235.528858 103980.994317 
L 232.282312 103980.994317 
z
" clip-path="url(#p45351073ba)" style="fill: #1f77b4"/>
   </g>
   <g id="patch_59">
    <path d="M 235.528858 103980.994317 
L 238.775403 103980.994317 
L 238.775403 103980.994317 
L 235.528858 103980.994317 
z
" clip-path="url(#p45351073ba)" style="fill: #1f77b4"/>
   </g>
   <g id="patch_60">
    <path d="M 238.775403 103980.994317 
L 242.021948 103980.994317 
L 242.021948 103980.994317 
L 238.775403 103980.994317 
z
" clip-path="url(#p45351073ba)" style="fill: #1f77b4"/>
   </g>
   <g id="patch_61">
    <path d="M 242.021948 103980.994317 
L 245.268494 103980.994317 
L 245.268494 103980.994317 
L 242.021948 103980.994317 
z
" clip-path="url(#p45351073ba)" style="fill: #1f77b4"/>
   </g>
   <g id="patch_62">
    <path d="M 245.268494 103980.994317 
L 248.515039 103980.994317 
L 248.515039 103980.994317 
L 245.268494 103980.994317 
z
" clip-path="url(#p45351073ba)" style="fill: #1f77b4"/>
   </g>
   <g id="patch_63">
    <path d="M 248.515039 103980.994317 
L 251.761585 103980.994317 
L 251.761585 103980.994317 
L 248.515039 103980.994317 
z
" clip-path="url(#p45351073ba)" style="fill: #1f77b4"/>
   </g>
   <g id="patch_64">
    <path d="M 251.761585 103980.994317 
L 255.00813 103980.994317 
L 255.00813 103980.994317 
L 251.761585 103980.994317 
z
" clip-path="url(#p45351073ba)" style="fill: #1f77b4"/>
   </g>
   <g id="patch_65">
    <path d="M 255.00813 103980.994317 
L 258.254676 103980.994317 
L 258.254676 103980.994317 
L 255.00813 103980.994317 
z
" clip-path="url(#p45351073ba)" style="fill: #1f77b4"/>
   </g>
   <g id="patch_66">
    <path d="M 258.254676 103980.994317 
L 261.501221 103980.994317 
L 261.501221 103980.994317 
L 258.254676 103980.994317 
z
" clip-path="url(#p45351073ba)" style="fill: #1f77b4"/>
   </g>
   <g id="patch_67">
    <path d="M 261.501221 103980.994317 
L 264.747767 103980.994317 
L 264.747767 103980.994317 
L 261.501221 103980.994317 
z
" clip-path="url(#p45351073ba)" style="fill: #1f77b4"/>
   </g>
   <g id="patch_68">
    <path d="M 264.747767 103980.994317 
L 267.994312 103980.994317 
L 267.994312 103980.994317 
L 264.747767 103980.994317 
z
" clip-path="url(#p45351073ba)" style="fill: #1f77b4"/>
   </g>
   <g id="patch_69">
    <path d="M 267.994312 103980.994317 
L 271.240858 103980.994317 
L 271.240858 103980.994317 
L 267.994312 103980.994317 
z
" clip-path="url(#p45351073ba)" style="fill: #1f77b4"/>
   </g>
   <g id="patch_70">
    <path d="M 271.240858 103980.994317 
L 274.487403 103980.994317 
L 274.487403 103980.994317 
L 271.240858 103980.994317 
z
" clip-path="url(#p45351073ba)" style="fill: #1f77b4"/>
   </g>
   <g id="patch_71">
    <path d="M 274.487403 103980.994317 
L 277.733948 103980.994317 
L 277.733948 103980.994317 
L 274.487403 103980.994317 
z
" clip-path="url(#p45351073ba)" style="fill: #1f77b4"/>
   </g>
   <g id="patch_72">
    <path d="M 277.733948 103980.994317 
L 280.980494 103980.994317 
L 280.980494 103980.994317 
L 277.733948 103980.994317 
z
" clip-path="url(#p45351073ba)" style="fill: #1f77b4"/>
   </g>
   <g id="patch_73">
    <path d="M 280.980494 103980.994317 
L 284.227039 103980.994317 
L 284.227039 103980.994317 
L 280.980494 103980.994317 
z
" clip-path="url(#p45351073ba)" style="fill: #1f77b4"/>
   </g>
   <g id="patch_74">
    <path d="M 284.227039 103980.994317 
L 287.473585 103980.994317 
L 287.473585 103980.994317 
L 284.227039 103980.994317 
z
" clip-path="url(#p45351073ba)" style="fill: #1f77b4"/>
   </g>
   <g id="patch_75">
    <path d="M 287.473585 103980.994317 
L 290.72013 103980.994317 
L 290.72013 103980.994317 
L 287.473585 103980.994317 
z
" clip-path="url(#p45351073ba)" style="fill: #1f77b4"/>
   </g>
   <g id="patch_76">
    <path d="M 290.72013 103980.994317 
L 293.966676 103980.994317 
L 293.966676 103980.994317 
L 290.72013 103980.994317 
z
" clip-path="url(#p45351073ba)" style="fill: #1f77b4"/>
   </g>
   <g id="patch_77">
    <path d="M 293.966676 103980.994317 
L 297.213221 103980.994317 
L 297.213221 103980.994317 
L 293.966676 103980.994317 
z
" clip-path="url(#p45351073ba)" style="fill: #1f77b4"/>
   </g>
   <g id="patch_78">
    <path d="M 297.213221 103980.994317 
L 300.459767 103980.994317 
L 300.459767 103980.994317 
L 297.213221 103980.994317 
z
" clip-path="url(#p45351073ba)" style="fill: #1f77b4"/>
   </g>
   <g id="patch_79">
    <path d="M 300.459767 103980.994317 
L 303.706312 103980.994317 
L 303.706312 103980.994317 
L 300.459767 103980.994317 
z
" clip-path="url(#p45351073ba)" style="fill: #1f77b4"/>
   </g>
   <g id="patch_80">
    <path d="M 303.706312 103980.994317 
L 306.952858 103980.994317 
L 306.952858 103980.994317 
L 303.706312 103980.994317 
z
" clip-path="url(#p45351073ba)" style="fill: #1f77b4"/>
   </g>
   <g id="patch_81">
    <path d="M 306.952858 103980.994317 
L 310.199403 103980.994317 
L 310.199403 103980.994317 
L 306.952858 103980.994317 
z
" clip-path="url(#p45351073ba)" style="fill: #1f77b4"/>
   </g>
   <g id="patch_82">
    <path d="M 310.199403 103980.994317 
L 313.445948 103980.994317 
L 313.445948 103980.994317 
L 310.199403 103980.994317 
z
" clip-path="url(#p45351073ba)" style="fill: #1f77b4"/>
   </g>
   <g id="patch_83">
    <path d="M 313.445948 103980.994317 
L 316.692494 103980.994317 
L 316.692494 103980.994317 
L 313.445948 103980.994317 
z
" clip-path="url(#p45351073ba)" style="fill: #1f77b4"/>
   </g>
   <g id="patch_84">
    <path d="M 316.692494 103980.994317 
L 319.939039 103980.994317 
L 319.939039 103980.994317 
L 316.692494 103980.994317 
z
" clip-path="url(#p45351073ba)" style="fill: #1f77b4"/>
   </g>
   <g id="patch_85">
    <path d="M 319.939039 103980.994317 
L 323.185585 103980.994317 
L 323.185585 103980.994317 
L 319.939039 103980.994317 
z
" clip-path="url(#p45351073ba)" style="fill: #1f77b4"/>
   </g>
   <g id="patch_86">
    <path d="M 323.185585 103980.994317 
L 326.43213 103980.994317 
L 326.43213 103980.994317 
L 323.185585 103980.994317 
z
" clip-path="url(#p45351073ba)" style="fill: #1f77b4"/>
   </g>
   <g id="patch_87">
    <path d="M 326.43213 103980.994317 
L 329.678676 103980.994317 
L 329.678676 103980.994317 
L 326.43213 103980.994317 
z
" clip-path="url(#p45351073ba)" style="fill: #1f77b4"/>
   </g>
   <g id="patch_88">
    <path d="M 329.678676 103980.994317 
L 332.925221 103980.994317 
L 332.925221 261.216 
L 329.678676 261.216 
z
" clip-path="url(#p45351073ba)" style="fill: #1f77b4"/>
   </g>
   <g id="patch_89">
    <path d="M 332.925221 103980.994317 
L 336.171767 103980.994317 
L 336.171767 103980.994317 
L 332.925221 103980.994317 
z
" clip-path="url(#p45351073ba)" style="fill: #1f77b4"/>
   </g>
   <g id="patch_90">
    <path d="M 336.171767 103980.994317 
L 339.418312 103980.994317 
L 339.418312 103980.994317 
L 336.171767 103980.994317 
z
" clip-path="url(#p45351073ba)" style="fill: #1f77b4"/>
   </g>
   <g id="patch_91">
    <path d="M 339.418312 103980.994317 
L 342.664858 103980.994317 
L 342.664858 103980.994317 
L 339.418312 103980.994317 
z
" clip-path="url(#p45351073ba)" style="fill: #1f77b4"/>
   </g>
   <g id="patch_92">
    <path d="M 342.664858 103980.994317 
L 345.911403 103980.994317 
L 345.911403 103980.994317 
L 342.664858 103980.994317 
z
" clip-path="url(#p45351073ba)" style="fill: #1f77b4"/>
   </g>
   <g id="patch_93">
    <path d="M 345.911403 103980.994317 
L 349.157948 103980.994317 
L 349.157948 103980.994317 
L 345.911403 103980.994317 
z
" clip-path="url(#p45351073ba)" style="fill: #1f77b4"/>
   </g>
   <g id="patch_94">
    <path d="M 349.157948 103980.994317 
L 352.404494 103980.994317 
L 352.404494 103980.994317 
L 349.157948 103980.994317 
z
" clip-path="url(#p45351073ba)" style="fill: #1f77b4"/>
   </g>
   <g id="patch_95">
    <path d="M 352.404494 103980.994317 
L 355.651039 103980.994317 
L 355.651039 103980.994317 
L 352.404494 103980.994317 
z
" clip-path="url(#p45351073ba)" style="fill: #1f77b4"/>
   </g>
   <g id="patch_96">
    <path d="M 355.651039 103980.994317 
L 358.897585 103980.994317 
L 358.897585 103980.994317 
L 355.651039 103980.994317 
z
" clip-path="url(#p45351073ba)" style="fill: #1f77b4"/>
   </g>
   <g id="patch_97">
    <path d="M 358.897585 103980.994317 
L 362.14413 103980.994317 
L 362.14413 103980.994317 
L 358.897585 103980.994317 
z
" clip-path="url(#p45351073ba)" style="fill: #1f77b4"/>
   </g>
   <g id="patch_98">
    <path d="M 362.14413 103980.994317 
L 365.390676 103980.994317 
L 365.390676 103980.994317 
L 362.14413 103980.994317 
z
" clip-path="url(#p45351073ba)" style="fill: #1f77b4"/>
   </g>
   <g id="patch_99">
    <path d="M 365.390676 103980.994317 
L 368.637221 103980.994317 
L 368.637221 103980.994317 
L 365.390676 103980.994317 
z
" clip-path="url(#p45351073ba)" style="fill: #1f77b4"/>
   </g>
   <g id="patch_100">
    <path d="M 368.637221 103980.994317 
L 371.883767 103980.994317 
L 371.883767 103980.994317 
L 368.637221 103980.994317 
z
" clip-path="url(#p45351073ba)" style="fill: #1f77b4"/>
   </g>
   <g id="patch_101">
    <path d="M 371.883767 103980.994317 
L 375.130312 103980.994317 
L 375.130312 103980.994317 
L 371.883767 103980.994317 
z
" clip-path="url(#p45351073ba)" style="fill: #1f77b4"/>
   </g>
   <g id="patch_102">
    <path d="M 375.130312 103980.994317 
L 378.376858 103980.994317 
L 378.376858 261.216 
L 375.130312 261.216 
z
" clip-path="url(#p45351073ba)" style="fill: #1f77b4"/>
   </g>
   <g id="patch_103">
    <path d="M 37.489585 273.312 
L 37.489585 7.2 
" style="fill: none; stroke: #000000; stroke-linejoin: miter; stroke-linecap: square"/>
   </g>
   <g id="patch_104">
    <path d="M 394.609585 273.312 
L 394.609585 7.2 
" style="fill: none; stroke: #000000; stroke-linejoin: miter; stroke-linecap: square"/>
   </g>
   <g id="patch_105">
    <path d="M 37.489585 273.312 
L 394.609585 273.312 
" style="fill: none; stroke: #000000; stroke-linejoin: miter; stroke-linecap: square"/>
   </g>
   <g id="patch_106">
    <path d="M 37.489585 7.2 
L 394.609585 7.2 
" style="fill: none; stroke: #000000; stroke-linejoin: miter; stroke-linecap: square"/>
   </g>
  </g>
 </g>
 <defs>
  <clipPath id="p45351073ba">
   <rect x="37.489585" y="7.2" width="357.12" height="266.112"/>
  </clipPath>
 </defs>
</svg>
